<svg t="1689402575827" class="icon" viewBox="0 0 1024 1024" version="1.1" xmlns="http://www.w3.org/2000/svg" p-id="960" width="25" height="25"><path d="M568.32 553.0624m-279.3472 0a279.3472 279.3472 0 1 0 558.6944 0 279.3472 279.3472 0 1 0-558.6944 0Z" fill="#CFF6FF" p-id="961"></path><path d="M563.2 954.2144H464.6912A88.9856 88.9856 0 0 1 375.808 865.28v-43.008a11.6736 11.6736 0 0 0-6.5024-10.6496 335.872 335.872 0 0 1-46.7456-27.0336 11.8272 11.8272 0 0 0-12.4928-0.256l-37.2224 21.504A88.9344 88.9344 0 0 1 151.296 773.12l-49.2544-85.2992a88.832 88.832 0 0 1 32.512-121.4464l37.0688-21.4016a12.1344 12.1344 0 0 0 5.9392-11.3152 333.42976 333.42976 0 0 1 0-53.6064 12.1344 12.1344 0 0 0-5.9392-11.3152l-37.0688-21.248a88.9856 88.9856 0 0 1-32.512-121.4464L151.2448 240.64a88.9856 88.9856 0 0 1 121.4976-32.5632l37.2224 21.504a11.8784 11.8784 0 0 0 12.544 0 337.4592 337.4592 0 0 1 46.7968-27.0336 11.6736 11.6736 0 0 0 6.5024-10.6496V148.48a88.9856 88.9856 0 0 1 88.8832-88.6784H563.2A88.9856 88.9856 0 0 1 652.1344 148.48v43.4176a11.776 11.776 0 0 0 6.5536 10.7008 338.8928 338.8928 0 0 1 46.08 26.8288 11.776 11.776 0 0 0 12.544 0.3072l40.448-22.9376a82.2272 82.2272 0 0 1 111.2064 27.8016 25.6 25.6 0 1 1-43.4688 27.0848 31.1808 31.1808 0 0 0-42.1376-10.5472l-40.192 23.1424a63.232 63.232 0 0 1-67.328-2.5088 282.0608 282.0608 0 0 0-39.2192-22.7328 63.2832 63.2832 0 0 1-35.84-56.9344V148.48a37.7344 37.7344 0 0 0-37.5808-37.4784H464.6912A37.7344 37.7344 0 0 0 427.008 148.48v43.0592a63.1296 63.1296 0 0 1-35.84 56.9344A285.7984 285.7984 0 0 0 351.5392 271.36a63.232 63.232 0 0 1-67.1744 2.4576l-37.2224-21.504A37.8368 37.8368 0 0 0 195.584 266.24l-49.2032 85.4016a37.6832 37.6832 0 0 0 13.7728 51.5072l37.0688 21.4016a63.5904 63.5904 0 0 1 31.3856 59.6992 280.23296 280.23296 0 0 0 0 45.5168 63.5904 63.5904 0 0 1-31.3856 59.6992l-37.0688 21.4016a37.6832 37.6832 0 0 0-13.7728 51.5072L195.6352 747.52a37.7344 37.7344 0 0 0 51.5072 13.824l37.2224-21.504a63.232 63.232 0 0 1 67.1744 2.4576 285.7984 285.7984 0 0 0 39.68 22.8864 63.1296 63.1296 0 0 1 35.84 56.9344V865.28a37.7344 37.7344 0 0 0 37.6832 37.6832H563.2a37.7344 37.7344 0 0 0 37.7344-37.6832v-43.4176a63.2832 63.2832 0 0 1 35.584-56.8832A287.0784 287.0784 0 0 0 675.84 742.4a63.1296 63.1296 0 0 1 67.2256-2.5088l37.6832 21.76a37.7344 37.7344 0 0 0 51.5072-13.824l49.2544-85.2992a37.7344 37.7344 0 0 0-13.824-51.5072L829.952 588.8a63.4368 63.4368 0 0 1-31.232-59.392c0.5632-7.424 0.8192-14.9504 0.8192-22.3744s0-15.0016-0.8192-22.4256A63.4368 63.4368 0 0 1 829.952 424.96l37.7856-21.8624a37.7344 37.7344 0 0 0 13.824-51.5072 25.6 25.6 0 0 1 44.3392-25.6 88.9856 88.9856 0 0 1-32.5632 121.4464l-37.7856 21.8624a11.9296 11.9296 0 0 0-5.9392 11.3152c0.6656 8.7552 0.9728 17.6128 0.9728 26.368s-0.3072 17.5616-0.9728 26.3168a12.032 12.032 0 0 0 5.9392 11.3664l37.7856 21.8112a88.9344 88.9344 0 0 1 32.5632 121.4464L876.6464 773.12a88.9856 88.9856 0 0 1-121.4464 32.5632l-37.6832-21.76a11.776 11.776 0 0 0-12.544 0.3072 340.3264 340.3264 0 0 1-46.3872 26.88 11.6736 11.6736 0 0 0-6.4512 10.6496v43.52A88.9856 88.9856 0 0 1 563.2 954.2144z" fill="#474747" p-id="962"></path><path d="M513.536 673.9968A167.0144 167.0144 0 1 1 680.5504 506.88a167.168 167.168 0 0 1-167.0144 167.1168z m0-282.7776A115.8144 115.8144 0 1 0 629.3504 506.88a115.8656 115.8656 0 0 0-115.8144-115.6608z" fill="#1285EF" p-id="963"></path></svg>